<svg version="1.1" id="Layer_1" xmlns="http://www.w3.org/2000/svg" xmlns:xlink="http://www.w3.org/1999/xlink" x="0px" y="0px"
	 width="100%" viewBox="0 0 512 512" enable-background="new 0 0 512 512" xml:space="preserve">
<path fill="#FFFFFF" opacity="1.000000" stroke="none" 
	d="
M0.999999,296.000000 
	C1.000000,197.687332 1.000000,99.374680 1.000000,1.031008 
	C171.610107,1.031008 342.220215,1.031008 512.915161,1.031008 
	C512.915161,171.574203 512.915161,342.148468 512.915161,512.861328 
	C342.333405,512.861328 171.666718,512.861328 1.000000,512.861328 
	C1.000000,441.233337 1.000000,369.581696 1.469156,297.446594 
	C9.754407,297.024292 17.580269,297.325104 25.380924,297.007263 
	C27.871094,296.905792 30.914232,295.790192 32.651314,294.073242 
	C48.124786,278.778900 63.444126,263.325287 78.599785,247.715591 
	C81.624252,244.600494 83.335266,244.390366 86.483871,247.632034 
	C101.817184,263.418732 117.405350,278.958099 132.939728,294.548737 
	C133.946838,295.559479 135.242661,296.973450 136.432236,297.001251 
	C145.301315,297.208954 154.177490,297.114075 163.964493,297.114075 
	C162.019073,295.017761 160.842545,293.674377 159.587357,292.409027 
	C146.068588,278.781067 132.479172,265.222443 119.052498,251.504486 
	C115.878685,248.261841 113.240593,244.494827 110.869118,240.907501 
	C116.362846,240.730179 121.365608,240.862213 126.317307,240.421082 
	C130.361816,240.060760 133.320526,241.489746 136.035217,244.258667 
	C148.088943,256.553253 160.183960,268.807678 172.317078,281.023895 
	C174.368820,283.089661 174.877365,285.106598 173.308289,287.672333 
	C171.518555,290.598846 169.888611,293.623108 168.067108,296.819122 
	C184.262619,296.819122 199.915863,296.819122 215.569122,296.819122 
	C215.831863,296.435059 216.094589,296.050964 216.357330,295.666901 
	C189.020493,269.194794 161.683655,242.722687 134.051987,215.965088 
	C126.764359,223.709045 118.613388,232.370392 110.086990,241.102478 
	C107.835854,239.577286 105.880547,238.065063 104.098335,236.370773 
	C96.794182,229.426971 89.542770,222.427658 82.083862,215.268250 
	C81.325462,215.967712 80.198715,216.924988 79.164040,217.973160 
	C55.687588,241.755859 32.238384,265.565521 8.726810,289.313416 
	C6.337498,291.726715 3.584316,293.779755 0.999999,296.000000 
M230.574371,297.170532 
	C243.256409,297.170532 255.938446,297.170532 268.620483,297.170532 
	C268.932648,296.572510 269.244781,295.974518 269.556946,295.376495 
	C242.254974,268.933624 214.953003,242.490768 188.486374,216.856964 
	C180.728531,224.123245 172.439438,231.887115 163.234619,240.508682 
	C168.578796,240.508682 172.707367,240.249680 176.786392,240.587952 
	C180.254852,240.875595 184.784088,240.678970 186.920090,242.714981 
	C200.043839,255.224548 212.588715,268.339844 225.413055,281.166748 
	C227.448181,283.202301 227.494568,284.934509 226.033463,287.254761 
	C224.126160,290.283569 222.491531,293.484100 220.434265,297.155640 
	C223.977615,297.155640 226.793808,297.155640 230.574371,297.170532 
M388.188965,272.245300 
	C381.193542,271.653107 374.198120,271.060913 367.165436,270.465546 
	C367.165436,280.507996 367.165436,289.415405 367.165436,298.649841 
	C369.198029,298.558563 370.930847,298.480743 373.081360,298.384155 
	C373.081360,294.970978 373.081360,292.040894 373.081360,289.445404 
	C378.723755,287.395447 381.703217,290.287659 383.937500,294.327484 
	C386.071350,298.185638 389.077148,299.566559 393.821808,298.164490 
	C392.593842,296.454163 391.458313,294.889618 390.341339,293.311890 
	C389.233093,291.746521 388.143494,290.167938 387.062439,288.619049 
	C394.387146,282.850250 394.887543,277.504425 388.188965,272.245300 
M446.741943,274.208282 
	C439.603577,279.129791 440.684479,289.272919 444.730682,293.641205 
	C451.011505,300.422058 462.718292,300.843323 470.590027,294.174774 
	C469.773071,292.834137 468.935944,291.460388 468.108582,290.102631 
	C459.875183,294.385437 453.536224,294.256805 449.718811,289.796722 
	C447.076721,286.709808 447.210236,283.295624 449.285614,280.111389 
	C452.149353,275.717712 458.257843,275.420380 467.684723,279.010040 
	C468.625793,277.654938 469.604034,276.246277 470.833618,274.475708 
	C462.650879,269.903229 455.078827,269.015900 446.741943,274.208282 
M510.918732,297.588226 
	C507.030457,289.561737 503.213470,281.499573 499.221527,273.524963 
	C497.433807,269.953705 492.927795,269.735565 491.193481,273.133514 
	C486.999695,281.350128 482.997467,289.664520 478.722290,298.336548 
	C482.185028,298.767761 484.995453,299.448242 486.380402,295.475037 
	C486.696838,294.567322 488.342377,293.642090 489.430695,293.572083 
	C493.065491,293.338257 496.733704,293.348938 500.369659,293.576843 
	C501.468353,293.645691 503.149536,294.499420 503.456848,295.380005 
	C504.818726,299.282532 507.612396,298.955139 510.918732,297.588226 
M319.972809,298.263824 
	C315.951538,289.582153 312.044769,280.844299 307.830231,272.257507 
	C306.747742,270.051971 301.921234,270.358917 300.751770,272.657532 
	C296.483551,281.046906 292.424164,289.542542 288.209808,298.154053 
	C291.826019,299.050659 294.553345,299.208405 295.880188,295.322174 
	C296.155548,294.515778 297.544952,293.630859 298.462830,293.582825 
	C302.283478,293.382721 306.124969,293.382904 309.947662,293.555817 
	C310.917816,293.599701 312.459534,294.362701 312.690643,295.116547 
	C313.790710,298.704773 316.444153,298.857483 319.972809,298.263824 
M354.104645,272.717499 
	C353.651306,272.153839 353.204926,271.105621 352.743622,271.099030 
	C345.510254,270.995605 338.274994,271.026550 331.142334,271.026550 
	C331.142334,280.583527 331.142334,289.474304 331.142334,298.322174 
	C333.252716,298.322174 335.008179,298.322174 337.200928,298.322174 
	C337.200928,294.938263 337.200928,291.847382 337.200928,288.223816 
	C342.518341,288.223816 347.416901,288.223816 352.642548,288.223816 
	C352.518707,286.250488 352.430176,284.839722 352.308777,282.905334 
	C347.106628,282.905334 342.219910,282.905334 337.353455,282.905334 
	C337.353455,280.585938 337.353455,278.815613 337.353455,276.412567 
	C342.047516,276.412567 346.495239,276.319061 350.936157,276.452057 
	C353.149567,276.518341 354.546814,276.119446 354.104645,272.717499 
M426.059967,298.641815 
	C430.994324,298.582886 428.553162,295.398926 428.760834,293.094513 
	C426.263458,292.971649 424.145203,292.867432 421.800720,292.752106 
	C421.800720,287.317413 421.800720,282.095856 421.800720,276.741302 
	C424.374359,276.509705 426.604065,276.309052 429.108276,276.083679 
	C428.963623,274.177765 428.846161,272.630463 428.735443,271.171722 
	C421.642883,271.171722 415.030121,271.171722 408.211182,271.171722 
	C408.211182,272.953094 408.211182,274.533447 408.211182,276.214569 
	C410.557678,276.383209 412.673767,276.535278 415.039062,276.705261 
	C415.039062,282.140656 415.039062,287.355499 415.039062,292.716492 
	C412.656036,292.866058 410.537659,292.998993 408.339966,293.136932 
	C408.339966,295.053101 408.339966,296.738251 408.339966,298.644012 
	C414.186707,298.644012 419.665192,298.644012 426.059967,298.641815 
M313.369995,239.264267 
	C306.983124,232.829697 300.596252,226.395126 294.209381,219.960556 
	C293.904053,220.320084 293.598755,220.679611 293.293457,221.039139 
	C293.293457,230.087463 293.293457,239.135773 293.293457,248.184082 
	C293.771667,248.198105 294.249908,248.212128 294.728119,248.226135 
	C294.728119,240.829056 294.728119,233.431992 294.728119,224.959229 
	C304.498657,232.598953 310.890259,242.137497 320.480804,248.241669 
	C321.304352,238.760956 321.465454,229.783813 321.216553,220.820435 
	C320.427917,220.814697 319.639313,220.808960 318.850708,220.803207 
	C318.850708,228.350540 318.850708,235.897873 318.850708,243.445206 
	C318.250916,243.716171 317.651123,243.987152 317.051331,244.258118 
	C316.002869,242.768860 314.954376,241.279602 313.369995,239.264267 
M428.770569,220.584808 
	C426.783630,220.487534 424.749420,220.068939 422.818573,220.352982 
	C416.940247,221.217728 411.931915,223.748123 409.624054,229.579163 
	C407.743927,234.329483 408.145966,238.999939 411.704498,243.086349 
	C416.882080,249.032059 427.031403,250.715881 434.015076,246.620041 
	C439.308685,243.515396 442.214081,239.007568 441.403656,232.671860 
	C440.514526,225.721008 435.622559,222.644547 428.770569,220.584808 
M344.091217,247.689529 
	C353.750336,249.786591 360.248260,247.554626 361.930756,240.118973 
	C363.290894,234.108017 362.624207,227.634277 362.757935,221.363724 
	C362.763885,221.085663 361.788666,220.786682 360.221252,219.911835 
	C360.221252,225.600708 360.237244,230.486221 360.217163,235.371613 
	C360.192902,241.269287 356.198853,245.587646 350.509705,245.906799 
	C344.406982,246.249161 339.345245,241.960342 339.018768,235.944473 
	C338.820312,232.288559 339.019318,228.612701 338.924866,224.948761 
	C338.886841,223.472992 338.541656,222.005127 338.336273,220.533661 
	C337.651855,220.545425 336.967438,220.557175 336.283020,220.568924 
	C336.283020,225.395844 336.213104,230.224030 336.301636,235.049332 
	C336.400146,240.420471 338.457062,244.740189 344.091217,247.689529 
M380.866119,242.384872 
	C380.742950,235.127197 380.619812,227.869507 380.496643,220.611832 
	C380.036316,220.584137 379.575989,220.556458 379.115662,220.528763 
	C378.783752,221.034378 378.168060,221.536850 378.162384,222.046066 
	C378.073914,230.034637 377.973633,238.026245 378.164795,246.010239 
	C378.185760,246.885666 379.952484,248.408112 380.964722,248.455704 
	C386.280212,248.705627 391.615021,248.642029 396.939087,248.516815 
	C397.820831,248.496078 398.682800,247.632446 399.553925,247.158340 
	C399.466980,246.556595 399.380066,245.954865 399.293152,245.353119 
	C394.578796,245.353119 389.856323,245.508560 385.154907,245.261810 
	C383.674591,245.184097 382.250854,244.027695 380.866119,242.384872 
M73.973068,277.688293 
	C76.222870,277.795807 78.472672,277.903351 80.803070,278.014740 
	C80.803070,275.021820 80.803070,272.498138 80.803070,269.971130 
	C78.153679,269.971130 75.879013,269.971130 73.447517,269.971130 
	C73.447517,272.462219 73.447517,274.732788 73.973068,277.688293 
M91.734482,277.194153 
	C91.734482,274.908813 91.734482,272.623505 91.734482,269.821716 
	C89.286278,269.821716 85.739082,268.998291 85.120369,269.994202 
	C83.856857,272.028046 84.169029,275.040771 83.813057,277.798553 
	C86.832527,277.798553 88.961319,277.798553 91.734482,277.194153 
M80.678566,281.337982 
	C78.281357,281.227570 75.884148,281.117188 73.554245,281.009918 
	C73.554245,283.765442 73.554245,285.846741 73.554245,288.504883 
	C76.286285,288.312561 78.656418,288.145721 81.048492,287.977356 
	C81.048492,285.709747 81.048492,283.893188 80.678566,281.337982 
M87.516098,281.011780 
	C82.822128,280.287354 83.628342,283.812836 84.153633,286.065277 
	C85.332787,291.121490 88.978996,286.848999 91.902771,288.250641 
	C91.068054,285.095856 94.619743,280.858124 87.516098,281.011780 
z"/>
<path fill="#FD7723" opacity="1.000000" stroke="none" 
	d="
M0.999999,296.250000 
	C3.584316,293.779755 6.337498,291.726715 8.726810,289.313416 
	C32.238384,265.565521 55.687588,241.755859 79.164040,217.973160 
	C80.198715,216.924988 81.325462,215.967712 82.083862,215.268250 
	C89.542770,222.427658 96.794182,229.426971 104.098335,236.370773 
	C105.880547,238.065063 107.835854,239.577286 110.065002,241.080551 
	C110.418427,240.987885 110.356064,240.969025 110.356064,240.969025 
	C113.240593,244.494827 115.878685,248.261841 119.052498,251.504486 
	C132.479172,265.222443 146.068588,278.781067 159.587357,292.409027 
	C160.842545,293.674377 162.019073,295.017761 163.964493,297.114075 
	C154.177490,297.114075 145.301315,297.208954 136.432236,297.001251 
	C135.242661,296.973450 133.946838,295.559479 132.939728,294.548737 
	C117.405350,278.958099 101.817184,263.418732 86.483871,247.632034 
	C83.335266,244.390366 81.624252,244.600494 78.599785,247.715591 
	C63.444126,263.325287 48.124786,278.778900 32.651314,294.073242 
	C30.914232,295.790192 27.871094,296.905792 25.380924,297.007263 
	C17.580269,297.325104 9.754407,297.024292 1.469156,296.981567 
	C1.000000,297.000000 1.000000,296.500000 0.999999,296.250000 
z"/>
<path fill="#FC7623" opacity="1.000000" stroke="none" 
	d="
M230.092194,297.163086 
	C226.793808,297.155640 223.977615,297.155640 220.434265,297.155640 
	C222.491531,293.484100 224.126160,290.283569 226.033463,287.254761 
	C227.494568,284.934509 227.448181,283.202301 225.413055,281.166748 
	C212.588715,268.339844 200.043839,255.224548 186.920090,242.714981 
	C184.784088,240.678970 180.254852,240.875595 176.786392,240.587952 
	C172.707367,240.249680 168.578796,240.508682 163.234619,240.508682 
	C172.439438,231.887115 180.728531,224.123245 188.486374,216.856964 
	C214.953003,242.490768 242.254974,268.933624 269.556946,295.376495 
	C269.244781,295.974518 268.932648,296.572510 268.620483,297.170532 
	C255.938446,297.170532 243.256409,297.170532 230.092194,297.163086 
z"/>
<path fill="#FC7623" opacity="1.000000" stroke="none" 
	d="
M110.869110,240.907501 
	C110.356064,240.969025 110.418427,240.987885 110.440422,241.009811 
	C118.613388,232.370392 126.764359,223.709045 134.051987,215.965088 
	C161.683655,242.722687 189.020493,269.194794 216.357330,295.666901 
	C216.094589,296.050964 215.831863,296.435059 215.569122,296.819122 
	C199.915863,296.819122 184.262619,296.819122 168.067108,296.819122 
	C169.888611,293.623108 171.518555,290.598846 173.308289,287.672333 
	C174.877365,285.106598 174.368820,283.089661 172.317078,281.023895 
	C160.183960,268.807678 148.088943,256.553253 136.035217,244.258667 
	C133.320526,241.489746 130.361816,240.060760 126.317307,240.421082 
	C121.365608,240.862213 116.362846,240.730179 110.869110,240.907501 
z"/>
<path fill="#1A1715" opacity="1.000000" stroke="none" 
	d="
M388.519104,272.436096 
	C394.887543,277.504425 394.387146,282.850250 387.062439,288.619049 
	C388.143494,290.167938 389.233093,291.746521 390.341339,293.311890 
	C391.458313,294.889618 392.593842,296.454163 393.821808,298.164490 
	C389.077148,299.566559 386.071350,298.185638 383.937500,294.327484 
	C381.703217,290.287659 378.723755,287.395447 373.081360,289.445404 
	C373.081360,292.040894 373.081360,294.970978 373.081360,298.384155 
	C370.930847,298.480743 369.198029,298.558563 367.165436,298.649841 
	C367.165436,289.415405 367.165436,280.507996 367.165436,270.465546 
	C374.198120,271.060913 381.193542,271.653107 388.519104,272.436096 
M381.974640,284.258362 
	C383.521240,282.690125 385.067841,281.121887 386.614471,279.553680 
	C384.804443,278.421417 383.119446,276.748383 381.152771,276.293701 
	C378.691772,275.724762 375.999298,276.156891 373.298828,276.156891 
	C373.298828,279.123352 373.298828,281.619598 373.298828,284.279205 
	C376.155640,284.279205 378.620941,284.279205 381.974640,284.258362 
z"/>
<path fill="#161311" opacity="1.000000" stroke="none" 
	d="
M447.032959,273.990967 
	C455.078827,269.015900 462.650879,269.903229 470.833618,274.475708 
	C469.604034,276.246277 468.625793,277.654938 467.684723,279.010040 
	C458.257843,275.420380 452.149353,275.717712 449.285614,280.111389 
	C447.210236,283.295624 447.076721,286.709808 449.718811,289.796722 
	C453.536224,294.256805 459.875183,294.385437 468.108582,290.102631 
	C468.935944,291.460388 469.773071,292.834137 470.590027,294.174774 
	C462.718292,300.843323 451.011505,300.422058 444.730682,293.641205 
	C440.684479,289.272919 439.603577,279.129791 447.032959,273.990967 
z"/>
<path fill="#161311" opacity="1.000000" stroke="none" 
	d="
M510.789551,297.953186 
	C507.612396,298.955139 504.818726,299.282532 503.456848,295.380005 
	C503.149536,294.499420 501.468353,293.645691 500.369659,293.576843 
	C496.733704,293.348938 493.065491,293.338257 489.430695,293.572083 
	C488.342377,293.642090 486.696838,294.567322 486.380402,295.475037 
	C484.995453,299.448242 482.185028,298.767761 478.722290,298.336548 
	C482.997467,289.664520 486.999695,281.350128 491.193481,273.133514 
	C492.927795,269.735565 497.433807,269.953705 499.221527,273.524963 
	C503.213470,281.499573 507.030457,289.561737 510.789551,297.953186 
M494.647400,279.095673 
	C493.039429,282.219269 491.431427,285.342865 489.685120,288.735138 
	C493.529724,288.735138 496.588989,288.735138 500.265533,288.735138 
	C498.488708,285.194031 496.944824,282.117157 494.647400,279.095673 
z"/>
<path fill="#161311" opacity="1.000000" stroke="none" 
	d="
M319.685913,298.457336 
	C316.444153,298.857483 313.790710,298.704773 312.690643,295.116547 
	C312.459534,294.362701 310.917816,293.599701 309.947662,293.555817 
	C306.124969,293.382904 302.283478,293.382721 298.462830,293.582825 
	C297.544952,293.630859 296.155548,294.515778 295.880188,295.322174 
	C294.553345,299.208405 291.826019,299.050659 288.209808,298.154053 
	C292.424164,289.542542 296.483551,281.046906 300.751770,272.657532 
	C301.921234,270.358917 306.747742,270.051971 307.830231,272.257507 
	C312.044769,280.844299 315.951538,289.582153 319.685913,298.457336 
M302.977234,280.497375 
	C301.767822,283.149597 300.558411,285.801849 299.269623,288.628174 
	C302.991211,288.628174 305.995636,288.628174 309.589020,288.628174 
	C307.997192,285.415710 306.748718,282.724670 305.297150,280.148071 
	C305.074097,279.752136 303.915894,279.883057 302.977234,280.497375 
z"/>
<path fill="#161311" opacity="1.000000" stroke="none" 
	d="
M354.106079,273.117004 
	C354.546814,276.119446 353.149567,276.518341 350.936157,276.452057 
	C346.495239,276.319061 342.047516,276.412567 337.353455,276.412567 
	C337.353455,278.815613 337.353455,280.585938 337.353455,282.905334 
	C342.219910,282.905334 347.106628,282.905334 352.308777,282.905334 
	C352.430176,284.839722 352.518707,286.250488 352.642548,288.223816 
	C347.416901,288.223816 342.518341,288.223816 337.200928,288.223816 
	C337.200928,291.847382 337.200928,294.938263 337.200928,298.322174 
	C335.008179,298.322174 333.252716,298.322174 331.142334,298.322174 
	C331.142334,289.474304 331.142334,280.583527 331.142334,271.026550 
	C338.274994,271.026550 345.510254,270.995605 352.743622,271.099030 
	C353.204926,271.105621 353.651306,272.153839 354.106079,273.117004 
z"/>
<path fill="#1A1715" opacity="1.000000" stroke="none" 
	d="
M425.601807,298.642914 
	C419.665192,298.644012 414.186707,298.644012 408.339966,298.644012 
	C408.339966,296.738251 408.339966,295.053101 408.339966,293.136932 
	C410.537659,292.998993 412.656036,292.866058 415.039062,292.716492 
	C415.039062,287.355499 415.039062,282.140656 415.039062,276.705261 
	C412.673767,276.535278 410.557678,276.383209 408.211182,276.214569 
	C408.211182,274.533447 408.211182,272.953094 408.211182,271.171722 
	C415.030121,271.171722 421.642883,271.171722 428.735443,271.171722 
	C428.846161,272.630463 428.963623,274.177765 429.108276,276.083679 
	C426.604065,276.309052 424.374359,276.509705 421.800720,276.741302 
	C421.800720,282.095856 421.800720,287.317413 421.800720,292.752106 
	C424.145203,292.867432 426.263458,292.971649 428.760834,293.094513 
	C428.553162,295.398926 430.994324,298.582886 425.601807,298.642914 
z"/>
<path fill="#DD6522" opacity="1.000000" stroke="none" 
	d="
M313.637939,239.527313 
	C314.954376,241.279602 316.002869,242.768860 317.051331,244.258118 
	C317.651123,243.987152 318.250916,243.716171 318.850708,243.445206 
	C318.850708,235.897873 318.850708,228.350540 318.850708,220.803207 
	C319.639313,220.808960 320.427917,220.814697 321.216553,220.820435 
	C321.465454,229.783813 321.304352,238.760956 320.480804,248.241669 
	C310.890259,242.137497 304.498657,232.598953 294.728119,224.959229 
	C294.728119,233.431992 294.728119,240.829056 294.728119,248.226135 
	C294.249908,248.212128 293.771667,248.198105 293.293457,248.184082 
	C293.293457,239.135773 293.293457,230.087463 293.293457,221.039139 
	C293.598755,220.679611 293.904053,220.320084 294.209381,219.960556 
	C300.596252,226.395126 306.983124,232.829697 313.637939,239.527313 
z"/>
<path fill="#E0793A" opacity="1.000000" stroke="none" 
	d="
M429.166809,220.685028 
	C435.622559,222.644547 440.514526,225.721008 441.403656,232.671860 
	C442.214081,239.007568 439.308685,243.515396 434.015076,246.620041 
	C427.031403,250.715881 416.882080,249.032059 411.704498,243.086349 
	C408.145966,238.999939 407.743927,234.329483 409.624054,229.579163 
	C411.931915,223.748123 416.940247,221.217728 422.818573,220.352982 
	C424.749420,220.068939 426.783630,220.487534 429.166809,220.685028 
M415.048279,242.468536 
	C417.262268,243.526093 419.380127,244.933594 421.708862,245.573532 
	C427.923523,247.281342 435.786713,243.834656 437.792694,238.820297 
	C440.915192,231.014938 435.764801,223.989594 425.971375,223.292084 
	C420.879211,222.929428 415.909027,224.189133 413.134491,229.055847 
	C410.611206,233.481888 411.034607,237.955353 415.048279,242.468536 
z"/>
<path fill="#E0793A" opacity="1.000000" stroke="none" 
	d="
M343.744690,247.523468 
	C338.457062,244.740189 336.400146,240.420471 336.301636,235.049332 
	C336.213104,230.224030 336.283020,225.395844 336.283020,220.568924 
	C336.967438,220.557175 337.651855,220.545425 338.336273,220.533661 
	C338.541656,222.005127 338.886841,223.472992 338.924866,224.948761 
	C339.019318,228.612701 338.820312,232.288559 339.018768,235.944473 
	C339.345245,241.960342 344.406982,246.249161 350.509705,245.906799 
	C356.198853,245.587646 360.192902,241.269287 360.217163,235.371613 
	C360.237244,230.486221 360.221252,225.600708 360.221252,219.911835 
	C361.788666,220.786682 362.763885,221.085663 362.757935,221.363724 
	C362.624207,227.634277 363.290894,234.108017 361.930756,240.118973 
	C360.248260,247.554626 353.750336,249.786591 343.744690,247.523468 
z"/>
<path fill="#E0793A" opacity="1.000000" stroke="none" 
	d="
M380.833679,242.874939 
	C382.250854,244.027695 383.674591,245.184097 385.154907,245.261810 
	C389.856323,245.508560 394.578796,245.353119 399.293152,245.353119 
	C399.380066,245.954865 399.466980,246.556595 399.553925,247.158340 
	C398.682800,247.632446 397.820831,248.496078 396.939087,248.516815 
	C391.615021,248.642029 386.280212,248.705627 380.964722,248.455704 
	C379.952484,248.408112 378.185760,246.885666 378.164795,246.010239 
	C377.973633,238.026245 378.073914,230.034637 378.162384,222.046066 
	C378.168060,221.536850 378.783752,221.034378 379.115662,220.528763 
	C379.575989,220.556458 380.036316,220.584137 380.496643,220.611832 
	C380.619812,227.869507 380.742950,235.127197 380.833679,242.874939 
z"/>
<path fill="#FD7723" opacity="1.000000" stroke="none" 
	d="
M73.710297,277.345825 
	C73.447517,274.732788 73.447517,272.462219 73.447517,269.971130 
	C75.879013,269.971130 78.153679,269.971130 80.803070,269.971130 
	C80.803070,272.498138 80.803070,275.021820 80.803070,278.014740 
	C78.472672,277.903351 76.222870,277.795807 73.710297,277.345825 
z"/>
<path fill="#FD7723" opacity="1.000000" stroke="none" 
	d="
M91.412300,277.496338 
	C88.961319,277.798553 86.832527,277.798553 83.813057,277.798553 
	C84.169029,275.040771 83.856857,272.028046 85.120369,269.994202 
	C85.739082,268.998291 89.286278,269.821716 91.734482,269.821716 
	C91.734482,272.623505 91.734482,274.908813 91.412300,277.496338 
z"/>
<path fill="#FD7723" opacity="1.000000" stroke="none" 
	d="
M80.863525,281.707275 
	C81.048492,283.893188 81.048492,285.709747 81.048492,287.977356 
	C78.656418,288.145721 76.286285,288.312561 73.554245,288.504883 
	C73.554245,285.846741 73.554245,283.765442 73.554245,281.009918 
	C75.884148,281.117188 78.281357,281.227570 80.863525,281.707275 
z"/>
<path fill="#FD7723" opacity="1.000000" stroke="none" 
	d="
M87.962029,281.023376 
	C94.619743,280.858124 91.068054,285.095856 91.902771,288.250641 
	C88.978996,286.848999 85.332787,291.121490 84.153633,286.065277 
	C83.628342,283.812836 82.822128,280.287354 87.962029,281.023376 
z"/>
<path fill="#F2F2F2" opacity="1.000000" stroke="none" 
	d="
M381.530457,284.268799 
	C378.620941,284.279205 376.155640,284.279205 373.298828,284.279205 
	C373.298828,281.619598 373.298828,279.123352 373.298828,276.156891 
	C375.999298,276.156891 378.691772,275.724762 381.152771,276.293701 
	C383.119446,276.748383 384.804443,278.421417 386.614441,279.553650 
	C385.067841,281.121887 383.521240,282.690125 381.530457,284.268799 
z"/>
<path fill="#F2F2F2" opacity="1.000000" stroke="none" 
	d="
M495.024170,279.067993 
	C496.944824,282.117157 498.488708,285.194031 500.265533,288.735138 
	C496.588989,288.735138 493.529724,288.735138 489.685120,288.735138 
	C491.431427,285.342865 493.039429,282.219269 495.024170,279.067993 
z"/>
<path fill="#F2F2F2" opacity="1.000000" stroke="none" 
	d="
M303.083679,280.133850 
	C303.915894,279.883057 305.074097,279.752136 305.297150,280.148071 
	C306.748718,282.724670 307.997192,285.415710 309.589020,288.628174 
	C305.995636,288.628174 302.991211,288.628174 299.269623,288.628174 
	C300.558411,285.801849 301.767822,283.149597 303.083679,280.133850 
z"/>
<path fill="#FFFFFF" opacity="1.000000" stroke="none" 
	d="
M414.759979,242.204376 
	C411.034607,237.955353 410.611206,233.481888 413.134491,229.055847 
	C415.909027,224.189133 420.879211,222.929428 425.971375,223.292084 
	C435.764801,223.989594 440.915192,231.014938 437.792694,238.820297 
	C435.786713,243.834656 427.923523,247.281342 421.708862,245.573532 
	C419.380127,244.933594 417.262268,243.526093 414.759979,242.204376 
z"/>
</svg>